<mxfile host="" modified="2020-05-24T15:21:41.060Z" agent="5.0 (X11; Linux x86_64) AppleWebKit/537.36 (KHTML, like Gecko) Code/1.45.0 Chrome/78.0.3904.130 Electron/7.2.4 Safari/537.36" version="13.1.3" etag="lrwgP8mNOWNbAz78NI_h" pages="2">
            <diagram id="diagramid" name="Diagram">
              <mxGraphModel><root><mxCell id="0"/><mxCell id="1" parent="0"/><mxCell id="2" value="SharedData" style="outlineConnect=0;fontColor=#B3B3B3;gradientColor=#60A337;gradientDirection=north;fillColor=#277116;strokeColor=#ffffff;dashed=0;verticalLabelPosition=bottom;verticalAlign=top;align=center;html=1;fontSize=12;fontStyle=0;aspect=fixed;shape=mxgraph.aws4.resourceIcon;resIcon=mxgraph.aws4.s3;" vertex="1" parent="1"><mxGeometry x="1000" y="1337.5" width="50" height="50" as="geometry"/></mxCell><mxCell id="3" value="WebData" style="outlineConnect=0;fontColor=#B3B3B3;gradientColor=#60A337;gradientDirection=north;fillColor=#277116;strokeColor=#ffffff;dashed=0;verticalLabelPosition=bottom;verticalAlign=top;align=center;html=1;fontSize=12;fontStyle=0;aspect=fixed;shape=mxgraph.aws4.resourceIcon;resIcon=mxgraph.aws4.s3;" vertex="1" parent="1"><mxGeometry x="1000" y="1575" width="50" height="50" as="geometry"/></mxCell><mxCell id="4" value="TestWebData" style="outlineConnect=0;fontColor=#B3B3B3;gradientColor=#60A337;gradientDirection=north;fillColor=#277116;strokeColor=#ffffff;dashed=0;verticalLabelPosition=bottom;verticalAlign=top;align=center;html=1;fontSize=12;fontStyle=0;aspect=fixed;shape=mxgraph.aws4.resourceIcon;resIcon=mxgraph.aws4.s3;" vertex="1" parent="1"><mxGeometry x="1000" y="1450" width="50" height="50" as="geometry"/></mxCell><mxCell id="5" value="AdminData" style="outlineConnect=0;fontColor=#B3B3B3;gradientColor=#60A337;gradientDirection=north;fillColor=#277116;strokeColor=#ffffff;dashed=0;verticalLabelPosition=bottom;verticalAlign=top;align=center;html=1;fontSize=12;fontStyle=0;aspect=fixed;shape=mxgraph.aws4.resourceIcon;resIcon=mxgraph.aws4.s3;" vertex="1" parent="1"><mxGeometry x="1000" y="1712.5" width="50" height="50" as="geometry"/></mxCell><mxCell id="6" value="AdminUiData" style="outlineConnect=0;fontColor=#B3B3B3;gradientColor=#60A337;gradientDirection=north;fillColor=#277116;strokeColor=#ffffff;dashed=0;verticalLabelPosition=bottom;verticalAlign=top;align=center;html=1;fontSize=12;fontStyle=0;aspect=fixed;shape=mxgraph.aws4.resourceIcon;resIcon=mxgraph.aws4.s3;" vertex="1" parent="1"><mxGeometry x="750" y="1975" width="50" height="50" as="geometry"/></mxCell><mxCell id="7" value="FeedbackData" style="outlineConnect=0;fontColor=#B3B3B3;gradientColor=#60A337;gradientDirection=north;fillColor=#277116;strokeColor=#ffffff;dashed=0;verticalLabelPosition=bottom;verticalAlign=top;align=center;html=1;fontSize=12;fontStyle=0;aspect=fixed;shape=mxgraph.aws4.resourceIcon;resIcon=mxgraph.aws4.s3;" vertex="1" parent="1"><mxGeometry x="1000" y="725" width="50" height="50" as="geometry"/></mxCell><mxCell id="8" value="WebDataAccessPolicy" style="outlineConnect=0;fontColor=#B3B3B3;gradientColor=#60A337;gradientDirection=north;fillColor=#277116;strokeColor=#ffffff;dashed=0;verticalLabelPosition=bottom;verticalAlign=top;align=center;html=1;fontSize=12;fontStyle=0;aspect=fixed;shape=mxgraph.aws4.resourceIcon;resIcon=mxgraph.aws4.s3;" vertex="1" parent="1"><mxGeometry x="750" y="1775" width="50" height="50" as="geometry"/></mxCell><mxCell id="9" value="TestWebDataAccessPolicy" style="outlineConnect=0;fontColor=#B3B3B3;gradientColor=#60A337;gradientDirection=north;fillColor=#277116;strokeColor=#ffffff;dashed=0;verticalLabelPosition=bottom;verticalAlign=top;align=center;html=1;fontSize=12;fontStyle=0;aspect=fixed;shape=mxgraph.aws4.resourceIcon;resIcon=mxgraph.aws4.s3;" vertex="1" parent="1"><mxGeometry x="750" y="1275" width="50" height="50" as="geometry"/></mxCell><mxCell id="10" value="AdminUiDataAccessPolicy" style="outlineConnect=0;fontColor=#B3B3B3;gradientColor=#60A337;gradientDirection=north;fillColor=#277116;strokeColor=#ffffff;dashed=0;verticalLabelPosition=bottom;verticalAlign=top;align=center;html=1;fontSize=12;fontStyle=0;aspect=fixed;shape=mxgraph.aws4.resourceIcon;resIcon=mxgraph.aws4.s3;" vertex="1" parent="1"><mxGeometry x="500" y="1750" width="50" height="50" as="geometry"/></mxCell><mxCell id="11" value="WebCacheLogs" style="outlineConnect=0;fontColor=#B3B3B3;gradientColor=#60A337;gradientDirection=north;fillColor=#277116;strokeColor=#ffffff;dashed=0;verticalLabelPosition=bottom;verticalAlign=top;align=center;html=1;fontSize=12;fontStyle=0;aspect=fixed;shape=mxgraph.aws4.resourceIcon;resIcon=mxgraph.aws4.s3;" vertex="1" parent="1"><mxGeometry x="500" y="1950" width="50" height="50" as="geometry"/></mxCell><mxCell id="12" value="TestWebCacheLogs" style="outlineConnect=0;fontColor=#B3B3B3;gradientColor=#60A337;gradientDirection=north;fillColor=#277116;strokeColor=#ffffff;dashed=0;verticalLabelPosition=bottom;verticalAlign=top;align=center;html=1;fontSize=12;fontStyle=0;aspect=fixed;shape=mxgraph.aws4.resourceIcon;resIcon=mxgraph.aws4.s3;" vertex="1" parent="1"><mxGeometry x="500" y="2350" width="50" height="50" as="geometry"/></mxCell><mxCell id="13" value="Certificate" style="outlineConnect=0;fontColor=#B3B3B3;gradientColor=#F54749;gradientDirection=north;fillColor=#C7131F;strokeColor=#ffffff;dashed=0;verticalLabelPosition=bottom;verticalAlign=top;align=center;html=1;fontSize=12;fontStyle=0;aspect=fixed;shape=mxgraph.aws4.resourceIcon;resIcon=mxgraph.aws4.certificatemanager;" vertex="1" parent="1"><mxGeometry x="500" y="2050" width="50" height="50" as="geometry"/></mxCell><mxCell id="14" value="TestCertificate" style="outlineConnect=0;fontColor=#B3B3B3;gradientColor=#F54749;gradientDirection=north;fillColor=#C7131F;strokeColor=#ffffff;dashed=0;verticalLabelPosition=bottom;verticalAlign=top;align=center;html=1;fontSize=12;fontStyle=0;aspect=fixed;shape=mxgraph.aws4.resourceIcon;resIcon=mxgraph.aws4.certificatemanager;" vertex="1" parent="1"><mxGeometry x="500" y="2450" width="50" height="50" as="geometry"/></mxCell><mxCell id="15" value="WebCache" style="outlineConnect=0;fontColor=#B3B3B3;gradientColor=#945DF2;gradientDirection=north;fillColor=#5A30B5;strokeColor=#ffffff;dashed=0;verticalLabelPosition=bottom;verticalAlign=top;align=center;html=1;fontSize=12;fontStyle=0;aspect=fixed;shape=mxgraph.aws4.resourceIcon;resIcon=mxgraph.aws4.cloudfront;" vertex="1" parent="1"><mxGeometry x="250" y="1675" width="50" height="50" as="geometry"/></mxCell><mxCell id="16" value="TestWebCache" style="outlineConnect=0;fontColor=#B3B3B3;gradientColor=#945DF2;gradientDirection=north;fillColor=#5A30B5;strokeColor=#ffffff;dashed=0;verticalLabelPosition=bottom;verticalAlign=top;align=center;html=1;fontSize=12;fontStyle=0;aspect=fixed;shape=mxgraph.aws4.resourceIcon;resIcon=mxgraph.aws4.cloudfront;" vertex="1" parent="1"><mxGeometry x="250" y="2327.689765625" width="50" height="50" as="geometry"/></mxCell><mxCell id="17" value="OnCache" style="outlineConnect=0;fontColor=#B3B3B3;gradientColor=#F78E04;gradientDirection=north;fillColor=#D05C17;strokeColor=#ffffff;dashed=0;verticalLabelPosition=bottom;verticalAlign=top;align=center;html=1;fontSize=12;fontStyle=0;aspect=fixed;shape=mxgraph.aws4.resourceIcon;resIcon=mxgraph.aws4.lambda;" vertex="1" parent="1"><mxGeometry width="50" height="50" as="geometry"/></mxCell><mxCell id="18" value="OnAzn" style="outlineConnect=0;fontColor=#B3B3B3;gradientColor=#F78E04;gradientDirection=north;fillColor=#D05C17;strokeColor=#ffffff;dashed=0;verticalLabelPosition=bottom;verticalAlign=top;align=center;html=1;fontSize=12;fontStyle=0;aspect=fixed;shape=mxgraph.aws4.resourceIcon;resIcon=mxgraph.aws4.lambda;" vertex="1" parent="1"><mxGeometry y="100" width="50" height="50" as="geometry"/></mxCell><mxCell id="19" value="FeedbackTopic" style="outlineConnect=0;fontColor=#B3B3B3;gradientColor=#F34482;gradientDirection=north;fillColor=#BC1356;strokeColor=#ffffff;dashed=0;verticalLabelPosition=bottom;verticalAlign=top;align=center;html=1;fontSize=12;fontStyle=0;aspect=fixed;shape=mxgraph.aws4.resourceIcon;resIcon=mxgraph.aws4.sns;" vertex="1" parent="1"><mxGeometry x="1000" y="825" width="50" height="50" as="geometry"/></mxCell><mxCell id="20" value="OnFeedback" style="outlineConnect=0;fontColor=#B3B3B3;gradientColor=#F78E04;gradientDirection=north;fillColor=#D05C17;strokeColor=#ffffff;dashed=0;verticalLabelPosition=bottom;verticalAlign=top;align=center;html=1;fontSize=12;fontStyle=0;aspect=fixed;shape=mxgraph.aws4.resourceIcon;resIcon=mxgraph.aws4.lambda;" vertex="1" parent="1"><mxGeometry y="476.220703125" width="50" height="50" as="geometry"/></mxCell><mxCell id="21" value="StateQueue" style="outlineConnect=0;fontColor=#B3B3B3;gradientColor=#F34482;gradientDirection=north;fillColor=#BC1356;strokeColor=#ffffff;dashed=0;verticalLabelPosition=bottom;verticalAlign=top;align=center;html=1;fontSize=12;fontStyle=0;aspect=fixed;shape=mxgraph.aws4.resourceIcon;resIcon=mxgraph.aws4.sqs;" vertex="1" parent="1"><mxGeometry x="750" y="1175" width="50" height="50" as="geometry"/></mxCell><mxCell id="22" value="FeedbackPublisher" style="outlineConnect=0;fontColor=#B3B3B3;gradientColor=#F78E04;gradientDirection=north;fillColor=#D05C17;strokeColor=#ffffff;dashed=0;verticalLabelPosition=bottom;verticalAlign=top;align=center;html=1;fontSize=12;fontStyle=0;aspect=fixed;shape=mxgraph.aws4.resourceIcon;resIcon=mxgraph.aws4.lambda;" vertex="1" parent="1"><mxGeometry x="500" y="600" width="50" height="50" as="geometry"/></mxCell><mxCell id="23" value="FeedbackPubisherSchedule" style="outlineConnect=0;fontColor=#B3B3B3;gradientColor=#F34482;gradientDirection=north;fillColor=#BC1356;strokeColor=#ffffff;dashed=0;verticalLabelPosition=bottom;verticalAlign=top;align=center;html=1;fontSize=12;fontStyle=0;aspect=fixed;shape=mxgraph.aws4.resourceIcon;resIcon=mxgraph.aws4.eventbridge;" vertex="1" parent="1"><mxGeometry x="250" y="582.4322121842135" width="50" height="50" as="geometry"/></mxCell><mxCell id="24" value="FeedbackPublisherPermission" style="outlineConnect=0;fontColor=#B3B3B3;gradientColor=#F54749;gradientDirection=north;fillColor=#C7131F;strokeColor=#ffffff;dashed=0;verticalLabelPosition=bottom;verticalAlign=top;align=center;html=1;fontSize=12;fontStyle=0;aspect=fixed;shape=mxgraph.aws4.resourceIcon;resIcon=mxgraph.aws4.policy;" vertex="1" parent="1"><mxGeometry y="620.5218893782865" width="50" height="50" as="geometry"/></mxCell><mxCell id="25" value="OnAdmin" style="outlineConnect=0;fontColor=#B3B3B3;gradientColor=#F78E04;gradientDirection=north;fillColor=#D05C17;strokeColor=#ffffff;dashed=0;verticalLabelPosition=bottom;verticalAlign=top;align=center;html=1;fontSize=12;fontStyle=0;aspect=fixed;shape=mxgraph.aws4.resourceIcon;resIcon=mxgraph.aws4.lambda;" vertex="1" parent="1"><mxGeometry x="500" y="1450" width="50" height="50" as="geometry"/></mxCell><mxCell id="26" value="BuildSiteNMLayer" style="outlineConnect=0;fontColor=#B3B3B3;gradientColor=#F78E04;gradientDirection=north;fillColor=#D05C17;strokeColor=#ffffff;dashed=0;verticalLabelPosition=bottom;verticalAlign=top;align=center;html=1;fontSize=12;fontStyle=0;aspect=fixed;shape=mxgraph.aws4.resourceIcon;resIcon=mxgraph.aws4.lambda;" vertex="1" parent="1"><mxGeometry x="500" y="1300" width="50" height="50" as="geometry"/></mxCell><mxCell id="27" value="BuildSite" style="outlineConnect=0;fontColor=#B3B3B3;gradientColor=#F78E04;gradientDirection=north;fillColor=#D05C17;strokeColor=#ffffff;dashed=0;verticalLabelPosition=bottom;verticalAlign=top;align=center;html=1;fontSize=12;fontStyle=0;aspect=fixed;shape=mxgraph.aws4.resourceIcon;resIcon=mxgraph.aws4.lambda;" vertex="1" parent="1"><mxGeometry x="250" y="1310.888671875" width="50" height="50" as="geometry"/></mxCell><mxCell id="28" value="BuildSiteAsyncConfig" style="outlineConnect=0;fontColor=#B3B3B3;gradientColor=#F78E04;gradientDirection=north;fillColor=#D05C17;strokeColor=#ffffff;dashed=0;verticalLabelPosition=bottom;verticalAlign=top;align=center;html=1;fontSize=12;fontStyle=0;aspect=fixed;shape=mxgraph.aws4.resourceIcon;resIcon=mxgraph.aws4.lambda;" vertex="1" parent="1"><mxGeometry y="1310.888671875" width="50" height="50" as="geometry"/></mxCell><mxCell id="29" value="LambdaInvokeFromAdminPermission" style="outlineConnect=0;fontColor=#B3B3B3;gradientColor=#F54749;gradientDirection=north;fillColor=#C7131F;strokeColor=#ffffff;dashed=0;verticalLabelPosition=bottom;verticalAlign=top;align=center;html=1;fontSize=12;fontStyle=0;aspect=fixed;shape=mxgraph.aws4.resourceIcon;resIcon=mxgraph.aws4.policy;" vertex="1" parent="1"><mxGeometry y="1600" width="50" height="50" as="geometry"/></mxCell><mxCell id="30" value="AdminWorkerNMLayer" style="outlineConnect=0;fontColor=#B3B3B3;gradientColor=#F78E04;gradientDirection=north;fillColor=#D05C17;strokeColor=#ffffff;dashed=0;verticalLabelPosition=bottom;verticalAlign=top;align=center;html=1;fontSize=12;fontStyle=0;aspect=fixed;shape=mxgraph.aws4.resourceIcon;resIcon=mxgraph.aws4.lambda;" vertex="1" parent="1"><mxGeometry x="750" y="1675" width="50" height="50" as="geometry"/></mxCell><mxCell id="31" value="AdminWorker" style="outlineConnect=0;fontColor=#B3B3B3;gradientColor=#F78E04;gradientDirection=north;fillColor=#D05C17;strokeColor=#ffffff;dashed=0;verticalLabelPosition=bottom;verticalAlign=top;align=center;html=1;fontSize=12;fontStyle=0;aspect=fixed;shape=mxgraph.aws4.resourceIcon;resIcon=mxgraph.aws4.lambda;" vertex="1" parent="1"><mxGeometry x="250" y="1037.5" width="50" height="50" as="geometry"/></mxCell><mxCell id="32" value="AdminWorkerAsyncConfig" style="outlineConnect=0;fontColor=#B3B3B3;gradientColor=#F78E04;gradientDirection=north;fillColor=#D05C17;strokeColor=#ffffff;dashed=0;verticalLabelPosition=bottom;verticalAlign=top;align=center;html=1;fontSize=12;fontStyle=0;aspect=fixed;shape=mxgraph.aws4.resourceIcon;resIcon=mxgraph.aws4.lambda;" vertex="1" parent="1"><mxGeometry y="1037.5" width="50" height="50" as="geometry"/></mxCell><mxCell id="33" value="StatePump" style="outlineConnect=0;fontColor=#B3B3B3;gradientColor=#F78E04;gradientDirection=north;fillColor=#D05C17;strokeColor=#ffffff;dashed=0;verticalLabelPosition=bottom;verticalAlign=top;align=center;html=1;fontSize=12;fontStyle=0;aspect=fixed;shape=mxgraph.aws4.resourceIcon;resIcon=mxgraph.aws4.lambda;" vertex="1" parent="1"><mxGeometry x="500" y="1550" width="50" height="50" as="geometry"/></mxCell><mxCell id="34" value="StatePumpSchedule" style="outlineConnect=0;fontColor=#B3B3B3;gradientColor=#F34482;gradientDirection=north;fillColor=#BC1356;strokeColor=#ffffff;dashed=0;verticalLabelPosition=bottom;verticalAlign=top;align=center;html=1;fontSize=12;fontStyle=0;aspect=fixed;shape=mxgraph.aws4.resourceIcon;resIcon=mxgraph.aws4.eventbridge;" vertex="1" parent="1"><mxGeometry x="250" y="1475" width="50" height="50" as="geometry"/></mxCell><mxCell id="35" value="StatePumpCwPermission" style="outlineConnect=0;fontColor=#B3B3B3;gradientColor=#F54749;gradientDirection=north;fillColor=#C7131F;strokeColor=#ffffff;dashed=0;verticalLabelPosition=bottom;verticalAlign=top;align=center;html=1;fontSize=12;fontStyle=0;aspect=fixed;shape=mxgraph.aws4.resourceIcon;resIcon=mxgraph.aws4.policy;" vertex="1" parent="1"><mxGeometry y="1500" width="50" height="50" as="geometry"/></mxCell><mxCell id="36" value="ProvisionerNMLayer" style="outlineConnect=0;fontColor=#B3B3B3;gradientColor=#F78E04;gradientDirection=north;fillColor=#D05C17;strokeColor=#ffffff;dashed=0;verticalLabelPosition=bottom;verticalAlign=top;align=center;html=1;fontSize=12;fontStyle=0;aspect=fixed;shape=mxgraph.aws4.resourceIcon;resIcon=mxgraph.aws4.lambda;" vertex="1" parent="1"><mxGeometry x="250" y="250" width="50" height="50" as="geometry"/></mxCell><mxCell id="37" value="ProvisionSite" style="outlineConnect=0;fontColor=#B3B3B3;gradientColor=#F78E04;gradientDirection=north;fillColor=#D05C17;strokeColor=#ffffff;dashed=0;verticalLabelPosition=bottom;verticalAlign=top;align=center;html=1;fontSize=12;fontStyle=0;aspect=fixed;shape=mxgraph.aws4.resourceIcon;resIcon=mxgraph.aws4.lambda;" vertex="1" parent="1"><mxGeometry y="300" width="50" height="50" as="geometry"/></mxCell><mxCell id="38" value="LambdaRole" style="outlineConnect=0;fontColor=#B3B3B3;gradientColor=#F54749;gradientDirection=north;fillColor=#C7131F;strokeColor=#ffffff;dashed=0;verticalLabelPosition=bottom;verticalAlign=top;align=center;html=1;fontSize=12;fontStyle=0;aspect=fixed;shape=mxgraph.aws4.resourceIcon;resIcon=mxgraph.aws4.role;" vertex="1" parent="1"><mxGeometry x="250" y="50" width="50" height="50" as="geometry"/></mxCell><mxCell id="39" value="LambdaFeedbackRole" style="outlineConnect=0;fontColor=#B3B3B3;gradientColor=#F54749;gradientDirection=north;fillColor=#C7131F;strokeColor=#ffffff;dashed=0;verticalLabelPosition=bottom;verticalAlign=top;align=center;html=1;fontSize=12;fontStyle=0;aspect=fixed;shape=mxgraph.aws4.resourceIcon;resIcon=mxgraph.aws4.role;" vertex="1" parent="1"><mxGeometry x="250" y="476.220703125" width="50" height="50" as="geometry"/></mxCell><mxCell id="40" value="FeedbackPublisherRole" style="outlineConnect=0;fontColor=#B3B3B3;gradientColor=#F54749;gradientDirection=north;fillColor=#C7131F;strokeColor=#ffffff;dashed=0;verticalLabelPosition=bottom;verticalAlign=top;align=center;html=1;fontSize=12;fontStyle=0;aspect=fixed;shape=mxgraph.aws4.resourceIcon;resIcon=mxgraph.aws4.role;" vertex="1" parent="1"><mxGeometry x="750" y="725" width="50" height="50" as="geometry"/></mxCell><mxCell id="41" value="AdminRole" style="outlineConnect=0;fontColor=#B3B3B3;gradientColor=#F54749;gradientDirection=north;fillColor=#C7131F;strokeColor=#ffffff;dashed=0;verticalLabelPosition=bottom;verticalAlign=top;align=center;html=1;fontSize=12;fontStyle=0;aspect=fixed;shape=mxgraph.aws4.resourceIcon;resIcon=mxgraph.aws4.role;" vertex="1" parent="1"><mxGeometry x="750" y="1575" width="50" height="50" as="geometry"/></mxCell><mxCell id="42" value="ProvisionerRole" style="outlineConnect=0;fontColor=#B3B3B3;gradientColor=#F54749;gradientDirection=north;fillColor=#C7131F;strokeColor=#ffffff;dashed=0;verticalLabelPosition=bottom;verticalAlign=top;align=center;html=1;fontSize=12;fontStyle=0;aspect=fixed;shape=mxgraph.aws4.resourceIcon;resIcon=mxgraph.aws4.role;" vertex="1" parent="1"><mxGeometry x="250" y="350" width="50" height="50" as="geometry"/></mxCell><mxCell id="43" value="BuildSiteRole" style="outlineConnect=0;fontColor=#B3B3B3;gradientColor=#F54749;gradientDirection=north;fillColor=#C7131F;strokeColor=#ffffff;dashed=0;verticalLabelPosition=bottom;verticalAlign=top;align=center;html=1;fontSize=12;fontStyle=0;aspect=fixed;shape=mxgraph.aws4.resourceIcon;resIcon=mxgraph.aws4.role;" vertex="1" parent="1"><mxGeometry x="500" y="1150" width="50" height="50" as="geometry"/></mxCell><mxCell id="44" value="Domain" style="outlineConnect=0;fontColor=#B3B3B3;gradientColor=#945DF2;gradientDirection=north;fillColor=#5A30B5;strokeColor=#ffffff;dashed=0;verticalLabelPosition=bottom;verticalAlign=top;align=center;html=1;fontSize=12;fontStyle=0;aspect=fixed;shape=mxgraph.aws4.resourceIcon;resIcon=mxgraph.aws4.route53;" vertex="1" parent="1"><mxGeometry x="750" y="2287.5" width="50" height="50" as="geometry"/></mxCell><mxCell id="45" value="DomainToWebCache" style="outlineConnect=0;fontColor=#B3B3B3;gradientColor=#945DF2;gradientDirection=north;fillColor=#5A30B5;strokeColor=#ffffff;dashed=0;verticalLabelPosition=bottom;verticalAlign=top;align=center;html=1;fontSize=12;fontStyle=0;aspect=fixed;shape=mxgraph.aws4.resourceIcon;resIcon=mxgraph.aws4.route53;" vertex="1" parent="1"><mxGeometry y="1700" width="50" height="50" as="geometry"/></mxCell><mxCell id="46" value="TestDomainToWebCache" style="outlineConnect=0;fontColor=#B3B3B3;gradientColor=#945DF2;gradientDirection=north;fillColor=#5A30B5;strokeColor=#ffffff;dashed=0;verticalLabelPosition=bottom;verticalAlign=top;align=center;html=1;fontSize=12;fontStyle=0;aspect=fixed;shape=mxgraph.aws4.resourceIcon;resIcon=mxgraph.aws4.route53;" vertex="1" parent="1"><mxGeometry y="2392.2070898437496" width="50" height="50" as="geometry"/></mxCell><mxCell id="47" value="UploadUser" style="outlineConnect=0;fontColor=#B3B3B3;gradientColor=#F54749;gradientDirection=north;fillColor=#C7131F;strokeColor=#ffffff;dashed=0;verticalLabelPosition=bottom;verticalAlign=top;align=center;html=1;fontSize=12;fontStyle=0;aspect=fixed;shape=mxgraph.aws4.resourceIcon;resIcon=mxgraph.aws4.identity_and_access_management;" vertex="1" parent="1"><mxGeometry x="250" y="1825" width="50" height="50" as="geometry"/></mxCell><mxCell id="48" value="UploadUserAccessKey" style="outlineConnect=0;fontColor=#B3B3B3;gradientColor=#F54749;gradientDirection=north;fillColor=#C7131F;strokeColor=#ffffff;dashed=0;verticalLabelPosition=bottom;verticalAlign=top;align=center;html=1;fontSize=12;fontStyle=0;aspect=fixed;shape=mxgraph.aws4.resourceIcon;resIcon=mxgraph.aws4.identity_and_access_management;" vertex="1" parent="1"><mxGeometry y="1800" width="50" height="50" as="geometry"/></mxCell><mxCell id="WebData|WebDataAccessPolicy" value="Bucket&#xA;Resource" style="edgeStyle=orthogonalEdgeStyle;rounded=1;orthogonalLoop=1;jettySize=auto;html=1;labelBackgroundColor=none;fontColor=#EA6B66;noEdgeStyle=1;orthogonal=1;" edge="1" parent="1" source="8" target="3"><mxGeometry relative="1" as="geometry"><Array as="points"><mxPoint x="812" y="1800"/><mxPoint x="986" y="1608"/></Array></mxGeometry></mxCell><mxCell id="TestWebData|TestWebDataAccessPolicy" value="Bucket&#xA;Resource" style="edgeStyle=orthogonalEdgeStyle;rounded=1;orthogonalLoop=1;jettySize=auto;html=1;labelBackgroundColor=none;fontColor=#EA6B66;noEdgeStyle=1;orthogonal=1;" edge="1" parent="1" source="9" target="4"><mxGeometry relative="1" as="geometry"><Array as="points"><mxPoint x="812" y="1300"/><mxPoint x="986" y="1460.7142857142858"/></Array></mxGeometry></mxCell><mxCell id="AdminUiData|AdminUiDataAccessPolicy" value="Bucket&#xA;Resource" style="edgeStyle=orthogonalEdgeStyle;rounded=1;orthogonalLoop=1;jettySize=auto;html=1;labelBackgroundColor=none;fontColor=#EA6B66;noEdgeStyle=1;orthogonal=1;" edge="1" parent="1" source="10" target="6"><mxGeometry relative="1" as="geometry"><Array as="points"><mxPoint x="562" y="1775"/><mxPoint x="734" y="2003.3333333333335"/></Array></mxGeometry></mxCell><mxCell id="Domain|Certificate" value="HostedZoneId" style="edgeStyle=orthogonalEdgeStyle;rounded=1;orthogonalLoop=1;jettySize=auto;html=1;labelBackgroundColor=none;fontColor=#EA6B66;noEdgeStyle=1;orthogonal=1;" edge="1" parent="1" source="13" target="44"><mxGeometry relative="1" as="geometry"><Array as="points"><mxPoint x="562" y="2075"/><mxPoint x="738" y="2297.5"/></Array></mxGeometry></mxCell><mxCell id="Domain|TestCertificate" value="HostedZoneId" style="edgeStyle=orthogonalEdgeStyle;rounded=1;orthogonalLoop=1;jettySize=auto;html=1;labelBackgroundColor=none;fontColor=#EA6B66;noEdgeStyle=1;orthogonal=1;" edge="1" parent="1" source="14" target="44"><mxGeometry relative="1" as="geometry"><Array as="points"><mxPoint x="562" y="2475"/><mxPoint x="736" y="2317.5"/></Array></mxGeometry></mxCell><mxCell id="Certificate|WebCache" value="AcmCertificateArn" style="edgeStyle=orthogonalEdgeStyle;rounded=1;orthogonalLoop=1;jettySize=auto;html=1;labelBackgroundColor=none;fontColor=#EA6B66;noEdgeStyle=1;orthogonal=1;" edge="1" parent="1" source="15" target="13"><mxGeometry relative="1" as="geometry"><Array as="points"><mxPoint x="312" y="1715"/><mxPoint x="488" y="2075"/></Array></mxGeometry></mxCell><mxCell id="WebData|WebCache" value="DomainName" style="edgeStyle=orthogonalEdgeStyle;rounded=1;orthogonalLoop=1;jettySize=auto;html=1;labelBackgroundColor=none;fontColor=#EA6B66;noEdgeStyle=1;orthogonal=1;" edge="1" parent="1" source="15" target="3"><mxGeometry relative="1" as="geometry"><Array as="points"><mxPoint x="314" y="1695"/><mxPoint x="400" y="1900"/><mxPoint x="650" y="1900"/><mxPoint x="650" y="2075"/><mxPoint x="900" y="2075"/><mxPoint x="988" y="1616"/></Array></mxGeometry></mxCell><mxCell id="AdminUiData|WebCache" value="DomainName" style="edgeStyle=orthogonalEdgeStyle;rounded=1;orthogonalLoop=1;jettySize=auto;html=1;labelBackgroundColor=none;fontColor=#EA6B66;noEdgeStyle=1;orthogonal=1;" edge="1" parent="1" source="15" target="6"><mxGeometry relative="1" as="geometry"><Array as="points"><mxPoint x="312" y="1685"/><mxPoint x="400" y="1850"/><mxPoint x="650" y="1850"/><mxPoint x="736" y="2010.0000000000002"/></Array></mxGeometry></mxCell><mxCell id="WebCacheLogs|WebCache" value="Bucket" style="edgeStyle=orthogonalEdgeStyle;rounded=1;orthogonalLoop=1;jettySize=auto;html=1;labelBackgroundColor=none;fontColor=#EA6B66;noEdgeStyle=1;orthogonal=1;" edge="1" parent="1" source="15" target="11"><mxGeometry relative="1" as="geometry"><Array as="points"><mxPoint x="314" y="1705"/><mxPoint x="488" y="1975"/></Array></mxGeometry></mxCell><mxCell id="TestCertificate|TestWebCache" value="AcmCertificateArn" style="edgeStyle=orthogonalEdgeStyle;rounded=1;orthogonalLoop=1;jettySize=auto;html=1;labelBackgroundColor=none;fontColor=#EA6B66;noEdgeStyle=1;orthogonal=1;" edge="1" parent="1" source="16" target="14"><mxGeometry relative="1" as="geometry"><Array as="points"><mxPoint x="312" y="2367.689765625"/><mxPoint x="488" y="2475"/></Array></mxGeometry></mxCell><mxCell id="TestWebData|TestWebCache" value="DomainName" style="edgeStyle=orthogonalEdgeStyle;rounded=1;orthogonalLoop=1;jettySize=auto;html=1;labelBackgroundColor=none;fontColor=#EA6B66;noEdgeStyle=1;orthogonal=1;" edge="1" parent="1" source="16" target="4"><mxGeometry relative="1" as="geometry"><Array as="points"><mxPoint x="314" y="2347.689765625"/><mxPoint x="400" y="2300"/><mxPoint x="650" y="2300"/><mxPoint x="650" y="2175"/><mxPoint x="900" y="2175"/><mxPoint x="988" y="1496.4285714285713"/></Array></mxGeometry></mxCell><mxCell id="AdminUiData|TestWebCache" value="DomainName" style="edgeStyle=orthogonalEdgeStyle;rounded=1;orthogonalLoop=1;jettySize=auto;html=1;labelBackgroundColor=none;fontColor=#EA6B66;noEdgeStyle=1;orthogonal=1;" edge="1" parent="1" source="16" target="6"><mxGeometry relative="1" as="geometry"><Array as="points"><mxPoint x="312" y="2337.689765625"/><mxPoint x="400" y="2250"/><mxPoint x="650" y="2250"/><mxPoint x="738" y="2016.666666666667"/></Array></mxGeometry></mxCell><mxCell id="TestWebCacheLogs|TestWebCache" value="Bucket" style="edgeStyle=orthogonalEdgeStyle;rounded=1;orthogonalLoop=1;jettySize=auto;html=1;labelBackgroundColor=none;fontColor=#EA6B66;noEdgeStyle=1;orthogonal=1;" edge="1" parent="1" source="16" target="12"><mxGeometry relative="1" as="geometry"><Array as="points"><mxPoint x="314" y="2357.689765625"/><mxPoint x="488" y="2375"/></Array></mxGeometry></mxCell><mxCell id="LambdaRole|OnCache" value="Role" style="edgeStyle=orthogonalEdgeStyle;rounded=1;orthogonalLoop=1;jettySize=auto;html=1;labelBackgroundColor=none;fontColor=#EA6B66;noEdgeStyle=1;orthogonal=1;" edge="1" parent="1" source="17" target="38"><mxGeometry relative="1" as="geometry"><Array as="points"><mxPoint x="62" y="25"/><mxPoint x="238" y="65"/></Array></mxGeometry></mxCell><mxCell id="LambdaRole|OnAzn" value="Role" style="edgeStyle=orthogonalEdgeStyle;rounded=1;orthogonalLoop=1;jettySize=auto;html=1;labelBackgroundColor=none;fontColor=#EA6B66;noEdgeStyle=1;orthogonal=1;" edge="1" parent="1" source="18" target="38"><mxGeometry relative="1" as="geometry"><Array as="points"><mxPoint x="62" y="125"/><mxPoint x="238" y="85"/></Array></mxGeometry></mxCell><mxCell id="LambdaFeedbackRole|OnFeedback" value="Role" style="edgeStyle=orthogonalEdgeStyle;rounded=1;orthogonalLoop=1;jettySize=auto;html=1;labelBackgroundColor=none;fontColor=#EA6B66;noEdgeStyle=1;orthogonal=1;" edge="1" parent="1" source="20" target="39"><mxGeometry relative="1" as="geometry"><Array as="points"><mxPoint x="62" y="501.220703125"/><mxPoint x="238" y="501.220703125"/></Array></mxGeometry></mxCell><mxCell id="FeedbackData|FeedbackPublisher" value="Variable" style="edgeStyle=orthogonalEdgeStyle;rounded=1;orthogonalLoop=1;jettySize=auto;html=1;labelBackgroundColor=none;fontColor=#EA6B66;noEdgeStyle=1;orthogonal=1;" edge="1" parent="1" source="22" target="7"><mxGeometry relative="1" as="geometry"><Array as="points"><mxPoint x="564" y="620"/><mxPoint x="650" y="825"/><mxPoint x="900" y="825"/><mxPoint x="988" y="763.3333333333334"/></Array></mxGeometry></mxCell><mxCell id="FeedbackTopic|FeedbackPublisher" value="Variable" style="edgeStyle=orthogonalEdgeStyle;rounded=1;orthogonalLoop=1;jettySize=auto;html=1;labelBackgroundColor=none;fontColor=#EA6B66;noEdgeStyle=1;orthogonal=1;" edge="1" parent="1" source="22" target="19"><mxGeometry relative="1" as="geometry"><Array as="points"><mxPoint x="564" y="630"/><mxPoint x="650" y="875"/><mxPoint x="900" y="875"/><mxPoint x="988" y="860"/></Array></mxGeometry></mxCell><mxCell id="StateQueue|FeedbackPublisher" value="Variable" style="edgeStyle=orthogonalEdgeStyle;rounded=1;orthogonalLoop=1;jettySize=auto;html=1;labelBackgroundColor=none;fontColor=#EA6B66;noEdgeStyle=1;orthogonal=1;" edge="1" parent="1" source="22" target="21"><mxGeometry relative="1" as="geometry"><Array as="points"><mxPoint x="562" y="640"/><mxPoint x="738" y="1185"/></Array></mxGeometry></mxCell><mxCell id="FeedbackPublisherRole|FeedbackPublisher" value="Role" style="edgeStyle=orthogonalEdgeStyle;rounded=1;orthogonalLoop=1;jettySize=auto;html=1;labelBackgroundColor=none;fontColor=#EA6B66;noEdgeStyle=1;orthogonal=1;" edge="1" parent="1" source="22" target="40"><mxGeometry relative="1" as="geometry"><Array as="points"><mxPoint x="562" y="610"/><mxPoint x="738" y="760"/></Array></mxGeometry></mxCell><mxCell id="FeedbackPublisherRole|FeedbackPubisherSchedule" value="RoleArn" style="edgeStyle=orthogonalEdgeStyle;rounded=1;orthogonalLoop=1;jettySize=auto;html=1;labelBackgroundColor=none;fontColor=#EA6B66;noEdgeStyle=1;orthogonal=1;" edge="1" parent="1" source="23" target="40"><mxGeometry relative="1" as="geometry"><Array as="points"><mxPoint x="312" y="597.4322121842135"/><mxPoint x="400" y="550"/><mxPoint x="650" y="550"/><mxPoint x="738" y="740"/></Array></mxGeometry></mxCell><mxCell id="FeedbackPublisher|FeedbackPubisherSchedule" value="Arn" style="edgeStyle=orthogonalEdgeStyle;rounded=1;orthogonalLoop=1;jettySize=auto;html=1;labelBackgroundColor=none;fontColor=#EA6B66;noEdgeStyle=1;orthogonal=1;" edge="1" parent="1" source="23" target="22"><mxGeometry relative="1" as="geometry"><Array as="points"><mxPoint x="312" y="617.4322121842135"/><mxPoint x="488" y="615"/></Array></mxGeometry></mxCell><mxCell id="FeedbackPublisher|FeedbackPublisherPermission" value="FunctionName" style="edgeStyle=orthogonalEdgeStyle;rounded=1;orthogonalLoop=1;jettySize=auto;html=1;labelBackgroundColor=none;fontColor=#EA6B66;noEdgeStyle=1;orthogonal=1;" edge="1" parent="1" source="24" target="22"><mxGeometry relative="1" as="geometry"><Array as="points"><mxPoint x="62" y="655.5218893782865"/><mxPoint x="150" y="682.4322121842135"/><mxPoint x="400" y="682.4322121842135"/><mxPoint x="488" y="635"/></Array></mxGeometry></mxCell><mxCell id="FeedbackPubisherSchedule|FeedbackPublisherPermission" value="SourceArn" style="edgeStyle=orthogonalEdgeStyle;rounded=1;orthogonalLoop=1;jettySize=auto;html=1;labelBackgroundColor=none;fontColor=#EA6B66;noEdgeStyle=1;orthogonal=1;" edge="1" parent="1" source="24" target="23"><mxGeometry relative="1" as="geometry"><Array as="points"><mxPoint x="62" y="635.5218893782865"/><mxPoint x="238" y="607.4322121842135"/></Array></mxGeometry></mxCell><mxCell id="AdminRole|OnAdmin" value="Role" style="edgeStyle=orthogonalEdgeStyle;rounded=1;orthogonalLoop=1;jettySize=auto;html=1;labelBackgroundColor=none;fontColor=#EA6B66;noEdgeStyle=1;orthogonal=1;" edge="1" parent="1" source="25" target="41"><mxGeometry relative="1" as="geometry"><Array as="points"><mxPoint x="562" y="1475"/><mxPoint x="736" y="1600"/></Array></mxGeometry></mxCell><mxCell id="AdminUiData|BuildSite" value="Variable" style="edgeStyle=orthogonalEdgeStyle;rounded=1;orthogonalLoop=1;jettySize=auto;html=1;labelBackgroundColor=none;fontColor=#EA6B66;noEdgeStyle=1;orthogonal=1;" edge="1" parent="1" source="27" target="6"><mxGeometry relative="1" as="geometry"><Array as="points"><mxPoint x="312" y="1352.555338541667"/><mxPoint x="400" y="1650"/><mxPoint x="650" y="1650"/><mxPoint x="734" y="1996.6666666666667"/></Array></mxGeometry></mxCell><mxCell id="TestWebData|BuildSite" value="Variable" style="edgeStyle=orthogonalEdgeStyle;rounded=1;orthogonalLoop=1;jettySize=auto;html=1;labelBackgroundColor=none;fontColor=#EA6B66;noEdgeStyle=1;orthogonal=1;" edge="1" parent="1" source="27" target="4"><mxGeometry relative="1" as="geometry"><Array as="points"><mxPoint x="312" y="1319.2220052083333"/><mxPoint x="400" y="1100"/><mxPoint x="650" y="1100"/><mxPoint x="650" y="1425"/><mxPoint x="900" y="1425"/><mxPoint x="984" y="1467.857142857143"/></Array></mxGeometry></mxCell><mxCell id="WebData|BuildSite" value="Variable" style="edgeStyle=orthogonalEdgeStyle;rounded=1;orthogonalLoop=1;jettySize=auto;html=1;labelBackgroundColor=none;fontColor=#EA6B66;noEdgeStyle=1;orthogonal=1;" edge="1" parent="1" source="27" target="3"><mxGeometry relative="1" as="geometry"><Array as="points"><mxPoint x="316" y="1332.5553385416667"/><mxPoint x="400" y="1250"/><mxPoint x="650" y="1250"/><mxPoint x="650" y="1525"/><mxPoint x="900" y="1525"/><mxPoint x="986" y="1592"/></Array></mxGeometry></mxCell><mxCell id="StateQueue|BuildSite" value="Variable" style="edgeStyle=orthogonalEdgeStyle;rounded=1;orthogonalLoop=1;jettySize=auto;html=1;labelBackgroundColor=none;fontColor=#EA6B66;noEdgeStyle=1;orthogonal=1;" edge="1" parent="1" source="27" target="21"><mxGeometry relative="1" as="geometry"><Array as="points"><mxPoint x="314" y="1345.8886718750002"/><mxPoint x="400" y="1400"/><mxPoint x="650" y="1400"/><mxPoint x="736" y="1205"/></Array></mxGeometry></mxCell><mxCell id="BuildSiteNMLayer|BuildSite" value="Layers" style="edgeStyle=orthogonalEdgeStyle;rounded=1;orthogonalLoop=1;jettySize=auto;html=1;labelBackgroundColor=none;fontColor=#EA6B66;noEdgeStyle=1;orthogonal=1;" edge="1" parent="1" source="27" target="26"><mxGeometry relative="1" as="geometry"><Array as="points"><mxPoint x="316" y="1339.2220052083335"/><mxPoint x="488" y="1325"/></Array></mxGeometry></mxCell><mxCell id="BuildSiteRole|BuildSite" value="Role" style="edgeStyle=orthogonalEdgeStyle;rounded=1;orthogonalLoop=1;jettySize=auto;html=1;labelBackgroundColor=none;fontColor=#EA6B66;noEdgeStyle=1;orthogonal=1;" edge="1" parent="1" source="27" target="43"><mxGeometry relative="1" as="geometry"><Array as="points"><mxPoint x="314" y="1325.888671875"/><mxPoint x="488" y="1175"/></Array></mxGeometry></mxCell><mxCell id="BuildSite|BuildSiteAsyncConfig" value="FunctionName" style="edgeStyle=orthogonalEdgeStyle;rounded=1;orthogonalLoop=1;jettySize=auto;html=1;labelBackgroundColor=none;fontColor=#EA6B66;noEdgeStyle=1;orthogonal=1;" edge="1" parent="1" source="28" target="27"><mxGeometry relative="1" as="geometry"><Array as="points"><mxPoint x="62" y="1335.888671875"/><mxPoint x="238" y="1325.888671875"/></Array></mxGeometry></mxCell><mxCell id="BuildSite|LambdaInvokeFromAdminPermission" value="FunctionName" style="edgeStyle=orthogonalEdgeStyle;rounded=1;orthogonalLoop=1;jettySize=auto;html=1;labelBackgroundColor=none;fontColor=#EA6B66;noEdgeStyle=1;orthogonal=1;" edge="1" parent="1" source="29" target="27"><mxGeometry relative="1" as="geometry"><Array as="points"><mxPoint x="62" y="1615"/><mxPoint x="238" y="1345.888671875"/></Array></mxGeometry></mxCell><mxCell id="AdminData|LambdaInvokeFromAdminPermission" value="SourceArn" style="edgeStyle=orthogonalEdgeStyle;rounded=1;orthogonalLoop=1;jettySize=auto;html=1;labelBackgroundColor=none;fontColor=#EA6B66;noEdgeStyle=1;orthogonal=1;" edge="1" parent="1" source="29" target="5"><mxGeometry relative="1" as="geometry"><Array as="points"><mxPoint x="62" y="1635"/><mxPoint x="150" y="1625"/><mxPoint x="400" y="1625"/><mxPoint x="400" y="1700"/><mxPoint x="650" y="1700"/><mxPoint x="650" y="1925"/><mxPoint x="900" y="1925"/><mxPoint x="988" y="1752.5"/></Array></mxGeometry></mxCell><mxCell id="SharedData|AdminWorker" value="Variable" style="edgeStyle=orthogonalEdgeStyle;rounded=1;orthogonalLoop=1;jettySize=auto;html=1;labelBackgroundColor=none;fontColor=#EA6B66;noEdgeStyle=1;orthogonal=1;" edge="1" parent="1" source="31" target="2"><mxGeometry relative="1" as="geometry"><Array as="points"><mxPoint x="316" y="1053.125"/><mxPoint x="400" y="800"/><mxPoint x="650" y="800"/><mxPoint x="650" y="1125"/><mxPoint x="900" y="1125"/><mxPoint x="988" y="1352.5"/></Array></mxGeometry></mxCell><mxCell id="AdminData|AdminWorker" value="Variable" style="edgeStyle=orthogonalEdgeStyle;rounded=1;orthogonalLoop=1;jettySize=auto;html=1;labelBackgroundColor=none;fontColor=#EA6B66;noEdgeStyle=1;orthogonal=1;" edge="1" parent="1" source="31" target="5"><mxGeometry relative="1" as="geometry"><Array as="points"><mxPoint x="318" y="1065.625"/><mxPoint x="400" y="900"/><mxPoint x="650" y="900"/><mxPoint x="650" y="1375"/><mxPoint x="900" y="1375"/><mxPoint x="988" y="1722.5"/></Array></mxGeometry></mxCell><mxCell id="AdminUiData|AdminWorker" value="Variable" style="edgeStyle=orthogonalEdgeStyle;rounded=1;orthogonalLoop=1;jettySize=auto;html=1;labelBackgroundColor=none;fontColor=#EA6B66;noEdgeStyle=1;orthogonal=1;" edge="1" parent="1" source="31" target="6"><mxGeometry relative="1" as="geometry"><Array as="points"><mxPoint x="312" y="1084.375"/><mxPoint x="400" y="1050"/><mxPoint x="650" y="1050"/><mxPoint x="738" y="1983.3333333333333"/></Array></mxGeometry></mxCell><mxCell id="TestWebData|AdminWorker" value="Variable" style="edgeStyle=orthogonalEdgeStyle;rounded=1;orthogonalLoop=1;jettySize=auto;html=1;labelBackgroundColor=none;fontColor=#EA6B66;noEdgeStyle=1;orthogonal=1;" edge="1" parent="1" source="31" target="4"><mxGeometry relative="1" as="geometry"><Array as="points"><mxPoint x="312" y="1040.625"/><mxPoint x="400" y="700"/><mxPoint x="650" y="700"/><mxPoint x="650" y="1025"/><mxPoint x="900" y="1025"/><mxPoint x="988" y="1453.5714285714287"/></Array></mxGeometry></mxCell><mxCell id="WebData|AdminWorker" value="Variable" style="edgeStyle=orthogonalEdgeStyle;rounded=1;orthogonalLoop=1;jettySize=auto;html=1;labelBackgroundColor=none;fontColor=#EA6B66;noEdgeStyle=1;orthogonal=1;" edge="1" parent="1" source="31" target="3"><mxGeometry relative="1" as="geometry"><Array as="points"><mxPoint x="314" y="1046.875"/><mxPoint x="400" y="750"/><mxPoint x="650" y="750"/><mxPoint x="650" y="1075"/><mxPoint x="900" y="1075"/><mxPoint x="988" y="1584"/></Array></mxGeometry></mxCell><mxCell id="StateQueue|AdminWorker" value="Variable" style="edgeStyle=orthogonalEdgeStyle;rounded=1;orthogonalLoop=1;jettySize=auto;html=1;labelBackgroundColor=none;fontColor=#EA6B66;noEdgeStyle=1;orthogonal=1;" edge="1" parent="1" source="31" target="21"><mxGeometry relative="1" as="geometry"><Array as="points"><mxPoint x="318" y="1059.375"/><mxPoint x="400" y="850"/><mxPoint x="650" y="850"/><mxPoint x="736" y="1195"/></Array></mxGeometry></mxCell><mxCell id="AdminWorkerNMLayer|AdminWorker" value="Layers" style="edgeStyle=orthogonalEdgeStyle;rounded=1;orthogonalLoop=1;jettySize=auto;html=1;labelBackgroundColor=none;fontColor=#EA6B66;noEdgeStyle=1;orthogonal=1;" edge="1" parent="1" source="31" target="30"><mxGeometry relative="1" as="geometry"><Array as="points"><mxPoint x="314" y="1078.125"/><mxPoint x="400" y="1000"/><mxPoint x="650" y="1000"/><mxPoint x="738" y="1690"/></Array></mxGeometry></mxCell><mxCell id="AdminRole|AdminWorker" value="Role" style="edgeStyle=orthogonalEdgeStyle;rounded=1;orthogonalLoop=1;jettySize=auto;html=1;labelBackgroundColor=none;fontColor=#EA6B66;noEdgeStyle=1;orthogonal=1;" edge="1" parent="1" source="31" target="41"><mxGeometry relative="1" as="geometry"><Array as="points"><mxPoint x="316" y="1071.875"/><mxPoint x="400" y="950"/><mxPoint x="650" y="950"/><mxPoint x="738" y="1586.6666666666667"/></Array></mxGeometry></mxCell><mxCell id="AdminWorker|AdminWorkerAsyncConfig" value="FunctionName" style="edgeStyle=orthogonalEdgeStyle;rounded=1;orthogonalLoop=1;jettySize=auto;html=1;labelBackgroundColor=none;fontColor=#EA6B66;noEdgeStyle=1;orthogonal=1;" edge="1" parent="1" source="32" target="31"><mxGeometry relative="1" as="geometry"><Array as="points"><mxPoint x="62" y="1062.5"/><mxPoint x="238" y="1062.5"/></Array></mxGeometry></mxCell><mxCell id="AdminData|StatePump" value="Variable" style="edgeStyle=orthogonalEdgeStyle;rounded=1;orthogonalLoop=1;jettySize=auto;html=1;labelBackgroundColor=none;fontColor=#EA6B66;noEdgeStyle=1;orthogonal=1;" edge="1" parent="1" source="33" target="5"><mxGeometry relative="1" as="geometry"><Array as="points"><mxPoint x="564" y="1583"/><mxPoint x="650" y="1875"/><mxPoint x="900" y="1875"/><mxPoint x="986" y="1742.5"/></Array></mxGeometry></mxCell><mxCell id="AdminUiData|StatePump" value="Variable" style="edgeStyle=orthogonalEdgeStyle;rounded=1;orthogonalLoop=1;jettySize=auto;html=1;labelBackgroundColor=none;fontColor=#EA6B66;noEdgeStyle=1;orthogonal=1;" edge="1" parent="1" source="33" target="6"><mxGeometry relative="1" as="geometry"><Array as="points"><mxPoint x="562" y="1591"/><mxPoint x="736" y="1990"/></Array></mxGeometry></mxCell><mxCell id="StateQueue|StatePump" value="Variable" style="edgeStyle=orthogonalEdgeStyle;rounded=1;orthogonalLoop=1;jettySize=auto;html=1;labelBackgroundColor=none;fontColor=#EA6B66;noEdgeStyle=1;orthogonal=1;" edge="1" parent="1" source="33" target="21"><mxGeometry relative="1" as="geometry"><Array as="points"><mxPoint x="562" y="1559"/><mxPoint x="738" y="1215"/></Array></mxGeometry></mxCell><mxCell id="AdminWorkerNMLayer|StatePump" value="Layers" style="edgeStyle=orthogonalEdgeStyle;rounded=1;orthogonalLoop=1;jettySize=auto;html=1;labelBackgroundColor=none;fontColor=#EA6B66;noEdgeStyle=1;orthogonal=1;" edge="1" parent="1" source="33" target="30"><mxGeometry relative="1" as="geometry"><Array as="points"><mxPoint x="566" y="1575"/><mxPoint x="738" y="1710"/></Array></mxGeometry></mxCell><mxCell id="AdminRole|StatePump" value="Role" style="edgeStyle=orthogonalEdgeStyle;rounded=1;orthogonalLoop=1;jettySize=auto;html=1;labelBackgroundColor=none;fontColor=#EA6B66;noEdgeStyle=1;orthogonal=1;" edge="1" parent="1" source="33" target="41"><mxGeometry relative="1" as="geometry"><Array as="points"><mxPoint x="564" y="1567"/><mxPoint x="738" y="1613.3333333333333"/></Array></mxGeometry></mxCell><mxCell id="StatePump|StatePumpSchedule" value="Arn" style="edgeStyle=orthogonalEdgeStyle;rounded=1;orthogonalLoop=1;jettySize=auto;html=1;labelBackgroundColor=none;fontColor=#EA6B66;noEdgeStyle=1;orthogonal=1;" edge="1" parent="1" source="34" target="33"><mxGeometry relative="1" as="geometry"><Array as="points"><mxPoint x="312" y="1500"/><mxPoint x="488" y="1565"/></Array></mxGeometry></mxCell><mxCell id="StatePump|StatePumpCwPermission" value="FunctionName" style="edgeStyle=orthogonalEdgeStyle;rounded=1;orthogonalLoop=1;jettySize=auto;html=1;labelBackgroundColor=none;fontColor=#EA6B66;noEdgeStyle=1;orthogonal=1;" edge="1" parent="1" source="35" target="33"><mxGeometry relative="1" as="geometry"><Array as="points"><mxPoint x="62" y="1535"/><mxPoint x="150" y="1575"/><mxPoint x="400" y="1575"/><mxPoint x="488" y="1585"/></Array></mxGeometry></mxCell><mxCell id="StatePumpSchedule|StatePumpCwPermission" value="SourceArn" style="edgeStyle=orthogonalEdgeStyle;rounded=1;orthogonalLoop=1;jettySize=auto;html=1;labelBackgroundColor=none;fontColor=#EA6B66;noEdgeStyle=1;orthogonal=1;" edge="1" parent="1" source="35" target="34"><mxGeometry relative="1" as="geometry"><Array as="points"><mxPoint x="62" y="1515"/><mxPoint x="238" y="1500"/></Array></mxGeometry></mxCell><mxCell id="ProvisionerNMLayer|ProvisionSite" value="Layers" style="edgeStyle=orthogonalEdgeStyle;rounded=1;orthogonalLoop=1;jettySize=auto;html=1;labelBackgroundColor=none;fontColor=#EA6B66;noEdgeStyle=1;orthogonal=1;" edge="1" parent="1" source="37" target="36"><mxGeometry relative="1" as="geometry"><Array as="points"><mxPoint x="62" y="315"/><mxPoint x="238" y="275"/></Array></mxGeometry></mxCell><mxCell id="ProvisionerRole|ProvisionSite" value="Role" style="edgeStyle=orthogonalEdgeStyle;rounded=1;orthogonalLoop=1;jettySize=auto;html=1;labelBackgroundColor=none;fontColor=#EA6B66;noEdgeStyle=1;orthogonal=1;" edge="1" parent="1" source="37" target="42"><mxGeometry relative="1" as="geometry"><Array as="points"><mxPoint x="62" y="335"/><mxPoint x="238" y="375"/></Array></mxGeometry></mxCell><mxCell id="FeedbackData|LambdaFeedbackRole" value="PolicyDocument" style="edgeStyle=orthogonalEdgeStyle;rounded=1;orthogonalLoop=1;jettySize=auto;html=1;labelBackgroundColor=none;fontColor=#EA6B66;noEdgeStyle=1;orthogonal=1;" edge="1" parent="1" source="39" target="7"><mxGeometry relative="1" as="geometry"><Array as="points"><mxPoint x="312" y="501.220703125"/><mxPoint x="400" y="500"/><mxPoint x="650" y="500"/><mxPoint x="650" y="500"/><mxPoint x="900" y="500"/><mxPoint x="988" y="736.6666666666666"/></Array></mxGeometry></mxCell><mxCell id="FeedbackTopic|FeedbackPublisherRole" value="PolicyDocument" style="edgeStyle=orthogonalEdgeStyle;rounded=1;orthogonalLoop=1;jettySize=auto;html=1;labelBackgroundColor=none;fontColor=#EA6B66;noEdgeStyle=1;orthogonal=1;" edge="1" parent="1" source="40" target="19"><mxGeometry relative="1" as="geometry"><Array as="points"><mxPoint x="812" y="760"/><mxPoint x="988" y="840"/></Array></mxGeometry></mxCell><mxCell id="FeedbackData|FeedbackPublisherRole" value="PolicyDocument" style="edgeStyle=orthogonalEdgeStyle;rounded=1;orthogonalLoop=1;jettySize=auto;html=1;labelBackgroundColor=none;fontColor=#EA6B66;noEdgeStyle=1;orthogonal=1;" edge="1" parent="1" source="40" target="7"><mxGeometry relative="1" as="geometry"><Array as="points"><mxPoint x="812" y="740"/><mxPoint x="986" y="750"/></Array></mxGeometry></mxCell><mxCell id="SharedData|AdminRole" value="PolicyDocument" style="edgeStyle=orthogonalEdgeStyle;rounded=1;orthogonalLoop=1;jettySize=auto;html=1;labelBackgroundColor=none;fontColor=#EA6B66;noEdgeStyle=1;orthogonal=1;" edge="1" parent="1" source="41" target="2"><mxGeometry relative="1" as="geometry"><Array as="points"><mxPoint x="812" y="1585"/><mxPoint x="988" y="1372.5"/></Array></mxGeometry></mxCell><mxCell id="AdminData|AdminRole" value="PolicyDocument" style="edgeStyle=orthogonalEdgeStyle;rounded=1;orthogonalLoop=1;jettySize=auto;html=1;labelBackgroundColor=none;fontColor=#EA6B66;noEdgeStyle=1;orthogonal=1;" edge="1" parent="1" source="41" target="5"><mxGeometry relative="1" as="geometry"><Array as="points"><mxPoint x="812" y="1615"/><mxPoint x="986" y="1732.5"/></Array></mxGeometry></mxCell><mxCell id="WebData|AdminRole" value="PolicyDocument" style="edgeStyle=orthogonalEdgeStyle;rounded=1;orthogonalLoop=1;jettySize=auto;html=1;labelBackgroundColor=none;fontColor=#EA6B66;noEdgeStyle=1;orthogonal=1;" edge="1" parent="1" source="41" target="3"><mxGeometry relative="1" as="geometry"><Array as="points"><mxPoint x="814" y="1605"/><mxPoint x="984" y="1600"/></Array></mxGeometry></mxCell><mxCell id="TestWebData|AdminRole" value="PolicyDocument" style="edgeStyle=orthogonalEdgeStyle;rounded=1;orthogonalLoop=1;jettySize=auto;html=1;labelBackgroundColor=none;fontColor=#EA6B66;noEdgeStyle=1;orthogonal=1;" edge="1" parent="1" source="41" target="4"><mxGeometry relative="1" as="geometry"><Array as="points"><mxPoint x="814" y="1595"/><mxPoint x="984" y="1482.142857142857"/></Array></mxGeometry></mxCell><mxCell id="TestWebData|BuildSiteRole" value="PolicyDocument" style="edgeStyle=orthogonalEdgeStyle;rounded=1;orthogonalLoop=1;jettySize=auto;html=1;labelBackgroundColor=none;fontColor=#EA6B66;noEdgeStyle=1;orthogonal=1;" edge="1" parent="1" source="43" target="4"><mxGeometry relative="1" as="geometry"><Array as="points"><mxPoint x="562" y="1175"/><mxPoint x="650" y="1475"/><mxPoint x="900" y="1475"/><mxPoint x="982" y="1475"/></Array></mxGeometry></mxCell><mxCell id="Domain|DomainToWebCache" value="HostedZoneId" style="edgeStyle=orthogonalEdgeStyle;rounded=1;orthogonalLoop=1;jettySize=auto;html=1;labelBackgroundColor=none;fontColor=#EA6B66;noEdgeStyle=1;orthogonal=1;" edge="1" parent="1" source="45" target="44"><mxGeometry relative="1" as="geometry"><Array as="points"><mxPoint x="62" y="1735"/><mxPoint x="150" y="1775"/><mxPoint x="400" y="1775"/><mxPoint x="400" y="2150"/><mxPoint x="650" y="2150"/><mxPoint x="736" y="2307.5"/></Array></mxGeometry></mxCell><mxCell id="WebCache|DomainToWebCache" value="DNSName" style="edgeStyle=orthogonalEdgeStyle;rounded=1;orthogonalLoop=1;jettySize=auto;html=1;labelBackgroundColor=none;fontColor=#EA6B66;noEdgeStyle=1;orthogonal=1;" edge="1" parent="1" source="45" target="15"><mxGeometry relative="1" as="geometry"><Array as="points"><mxPoint x="62" y="1715"/><mxPoint x="238" y="1700"/></Array></mxGeometry></mxCell><mxCell id="Domain|TestDomainToWebCache" value="HostedZoneId" style="edgeStyle=orthogonalEdgeStyle;rounded=1;orthogonalLoop=1;jettySize=auto;html=1;labelBackgroundColor=none;fontColor=#EA6B66;noEdgeStyle=1;orthogonal=1;" edge="1" parent="1" source="46" target="44"><mxGeometry relative="1" as="geometry"><Array as="points"><mxPoint x="62" y="2427.2070898437496"/><mxPoint x="150" y="2550"/><mxPoint x="400" y="2550"/><mxPoint x="400" y="2550"/><mxPoint x="650" y="2550"/><mxPoint x="738" y="2327.5"/></Array></mxGeometry></mxCell><mxCell id="TestWebCache|TestDomainToWebCache" value="DNSName" style="edgeStyle=orthogonalEdgeStyle;rounded=1;orthogonalLoop=1;jettySize=auto;html=1;labelBackgroundColor=none;fontColor=#EA6B66;noEdgeStyle=1;orthogonal=1;" edge="1" parent="1" source="46" target="16"><mxGeometry relative="1" as="geometry"><Array as="points"><mxPoint x="62" y="2407.2070898437496"/><mxPoint x="238" y="2352.689765625"/></Array></mxGeometry></mxCell><mxCell id="TestWebData|UploadUser" value="PolicyDocument" style="edgeStyle=orthogonalEdgeStyle;rounded=1;orthogonalLoop=1;jettySize=auto;html=1;labelBackgroundColor=none;fontColor=#EA6B66;noEdgeStyle=1;orthogonal=1;" edge="1" parent="1" source="47" target="4"><mxGeometry relative="1" as="geometry"><Array as="points"><mxPoint x="312" y="1850"/><mxPoint x="400" y="2200"/><mxPoint x="650" y="2200"/><mxPoint x="650" y="2125"/><mxPoint x="900" y="2125"/><mxPoint x="986" y="1489.2857142857142"/></Array></mxGeometry></mxCell><mxCell id="UploadUser|UploadUserAccessKey" value="UserName" style="edgeStyle=orthogonalEdgeStyle;rounded=1;orthogonalLoop=1;jettySize=auto;html=1;labelBackgroundColor=none;fontColor=#EA6B66;noEdgeStyle=1;orthogonal=1;" edge="1" parent="1" source="48" target="47"><mxGeometry relative="1" as="geometry"><Array as="points"><mxPoint x="62" y="1825"/><mxPoint x="238" y="1850"/></Array></mxGeometry></mxCell></root></mxGraphModel>
            </diagram>
          </mxfile>